    <svg width="30px" height="30px" viewBox="0 0 153 153" fill="none" xmlns="http://www.w3.org/2000/svg">
            <path d="M152.432 1.59917L1.59912 0L-4.48981e-05 150.833L150.833 152.432L152.432 1.59917Z" fill="#A7A7A7"/>
            <path d="M76.556 44.164C86.9258 44.274 88.3398 44.289 92.582 44.334C96.3528 44.3739 98.2283 45.3366 99.6373 45.823C101.513 46.7857 102.922 47.272 104.321 48.7011C105.72 50.1301 106.648 51.5542 107.099 53.4446C107.555 54.8637 108.007 56.7541 108.438 60.5299C108.393 64.7721 108.383 65.7148 108.268 76.5559C108.153 87.3971 108.143 88.3398 108.098 92.582C108.058 96.3528 107.096 98.2282 106.609 99.6373C105.647 101.513 105.16 102.922 103.731 104.321C102.302 105.72 100.878 106.648 98.9877 107.099C97.5686 107.555 95.6782 108.007 91.9024 108.438C87.6602 108.393 86.7175 108.383 75.8763 108.268C65.0352 108.153 64.0925 108.143 59.8503 108.098C56.0795 108.058 54.204 107.096 52.795 106.609C50.9195 105.647 49.5105 105.16 48.1114 103.731C46.7123 102.302 45.7846 100.878 45.3333 98.9876C44.8769 97.5686 44.4255 95.6782 43.9942 91.9023C44.0391 87.6602 44.0491 86.7174 44.1641 75.8763C44.279 65.0352 44.289 64.0925 44.334 59.8503C44.374 56.0794 45.3367 54.204 45.823 52.7949C46.7857 50.9195 47.2721 49.5105 48.7011 48.1114C50.1302 46.7123 51.5542 45.7846 53.4446 45.3332C54.8637 44.8769 56.7541 44.4255 60.5299 43.9941C64.7721 44.0391 66.1862 44.0541 76.556 44.164ZM76.6309 37.0937C65.7898 36.9788 64.8471 36.9688 60.6049 36.9238C56.3627 36.8789 53.5246 37.7916 51.1578 38.7093C48.7911 39.627 46.4193 41.0161 44.0375 43.3479C41.6558 45.6797 40.6931 47.5551 39.249 50.3682C38.2813 52.715 37.78 55.5381 37.2637 59.7753C37.2187 64.0175 37.2037 65.4316 37.0938 75.8013C36.9788 86.6425 36.9688 87.5852 36.9238 91.8274C36.8789 96.0696 37.7916 98.9077 38.7093 101.274C39.627 103.641 41.0161 106.013 43.3479 108.395C45.6797 110.776 47.5551 111.739 50.3682 113.183C52.715 114.151 55.5381 114.652 59.7753 115.169C64.0175 115.214 65.4316 115.229 75.8014 115.338C86.1711 115.448 87.5852 115.463 91.8274 115.508C96.0696 115.553 98.9077 114.641 101.274 113.723C103.641 112.805 106.013 111.416 108.395 109.084C110.777 106.753 111.739 104.877 113.183 102.064C114.151 99.7173 114.652 96.8941 115.169 92.6569C115.214 88.4148 115.229 87.0007 115.339 76.6309C115.448 66.2611 115.463 64.8471 115.508 60.6049C115.553 56.3627 114.641 53.5246 113.723 51.1578C112.805 48.791 111.416 46.4193 109.084 44.0375C106.753 41.6558 104.877 40.6931 102.064 39.249C99.7173 38.2813 96.8941 37.78 92.657 37.2637C88.4148 37.2187 87.4721 37.2087 76.6309 37.0937Z" fill="white"/>
            <path d="M76.431 55.9479C65.1185 55.828 56.0679 64.6887 55.9479 76.0012C55.828 87.3137 64.6888 96.3644 76.0013 96.4843C87.3138 96.6043 96.3644 87.7435 96.4844 76.431C96.6043 65.1185 87.7435 56.0678 76.431 55.9479ZM76.0762 89.414C69.0059 89.3391 62.9383 83.6179 63.0182 76.0762C63.0932 69.0059 68.8144 62.9383 76.3561 63.0182C83.4264 63.0932 89.494 68.8144 89.4141 76.3561C89.3391 83.4264 83.1465 89.489 76.0762 89.414Z" fill="white"/>
            <path d="M97.1256 60.41C99.7288 60.4376 101.862 58.3496 101.889 55.7464C101.917 53.1432 99.8288 51.0105 97.2256 50.9829C94.6224 50.9553 92.4897 53.0432 92.4621 55.6465C92.4345 58.2497 94.5224 60.3824 97.1256 60.41Z" fill="white"/>
            </svg>