  <svg width="30px" height="30px" viewBox="0 0 153 153" fill="none" xmlns="http://www.w3.org/2000/svg">
            <path d="M152.432 1.59917L1.59912 0L-4.48981e-05 150.833L150.833 152.432L152.432 1.59917Z" fill="#A7A7A7"/>
            <path d="M114.174 53.0484C111.331 54.4324 108.498 54.8738 105.194 55.3102C108.513 53.4597 110.9 50.6566 111.883 46.8958C109.035 48.7512 105.725 49.6589 101.944 50.5617C99.1461 47.7035 94.9239 45.7732 90.6817 45.7282C80.7833 45.6232 73.1417 54.9704 75.3985 64.4224C62.6769 63.8161 51.4294 57.5686 43.5163 48.0566C39.1992 55.0819 41.461 64.0626 48.01 68.8461C45.6532 68.8211 43.3064 67.8534 40.9597 66.8857C40.8847 73.9561 45.9996 80.61 53.05 82.5704C50.6882 83.0167 48.3264 83.4631 45.9746 82.9667C47.7951 89.1143 53.4014 93.8878 60.4717 93.9628C54.7705 98.145 46.2611 100.412 38.2581 99.3842C45.2834 103.701 53.2664 106.614 61.7508 106.704C90.5034 107.009 106.784 83.1401 106.076 60.9764C109.396 59.126 112.254 56.3278 114.174 53.0484Z" fill="white"/>
            </svg>